<svg width="22" height="23" viewBox="0 0 22 23" fill="none" xmlns="http://www.w3.org/2000/svg">
<path fill-rule="evenodd" clip-rule="evenodd" d="M6.10352e-05 11.0368V11.126C0.0107248 13.8115 0.983691 16.27 2.59202 18.1745C3.05721 18.7254 3.57556 19.2299 4.13914 19.6801C4.70637 20.1333 5.31943 20.5315 5.97025 20.8668C6.90277 21.347 7.91281 21.6979 8.97666 21.8957C9.59151 22.01 10.2243 22.0732 10.8706 22.0807C10.9136 22.0812 10.9568 22.0814 11 22.0814C14.6895 22.0814 17.9547 20.265 19.9502 17.4776C20.3681 16.8939 20.7304 16.2676 21.0291 15.6064C21.6528 14.2263 22 12.6944 22 11.0814C22 7.8212 20.5816 4.89226 18.3284 2.87795C17.8065 2.4114 17.2398 1.99391 16.6355 1.63274C14.9873 0.647571 13.0598 0.0814209 11 0.0814209C10.888 0.0814209 10.7765 0.0830927 10.6654 0.0864124C8.99852 0.13621 7.42483 0.556834 6.02396 1.26861C5.07091 1.75286 4.19785 2.37187 3.42988 3.10056C2.71666 3.77729 2.09407 4.54862 1.58222 5.39444C1.22114 5.99111 0.915173 6.62485 0.671356 7.28861C0.241905 8.45773 0.00529009 9.71997 6.10352e-05 11.0368ZM19.4813 14.1C19.8171 13.1564 20 12.1403 20 11.0814C20 8.62408 19.0151 6.39675 17.4186 4.77262C16.5976 6.13541 15.5149 7.26566 14.2668 8.12832C14.7352 9.34404 14.9886 10.6417 15.0045 11.9592C15.7693 12.1299 16.5275 12.3854 17.267 12.7302C18.0741 13.1066 18.8141 13.5685 19.4813 14.1ZM14.8414 13.9768C15.3752 14.1136 15.9041 14.3015 16.4217 14.5428C17.2221 14.916 17.9417 15.3919 18.5723 15.9475C17.0689 18.2823 14.5152 19.8767 11.5789 20.0631C12.5517 19.1399 13.3709 18.022 13.9721 16.7328C14.3909 15.8345 14.6781 14.9086 14.8414 13.9768ZM12.9965 11.7033C12.9583 10.8196 12.7899 9.94981 12.5014 9.12221C9.6888 10.3812 6.3659 10.4579 3.35389 9.05339C3.01257 8.89423 2.68325 8.71979 2.36638 8.53125C2.12793 9.33977 1.99997 10.1957 1.99997 11.0814C1.99997 13.0276 2.61769 14.8295 3.66776 16.3017C5.83044 13.2689 9.3686 11.5801 12.9965 11.7033ZM5.04707 17.8316C6.77264 15.1404 9.77143 13.6196 12.8586 13.7005C12.7231 14.44 12.492 15.1744 12.1595 15.8876C11.3777 17.564 10.1454 18.8864 8.67391 19.7779C7.31049 19.4142 6.07447 18.7383 5.04707 17.8316ZM11 2.08142C12.7846 2.08142 14.448 2.60088 15.8471 3.49685C15.2113 4.62981 14.3593 5.57752 13.3681 6.31199C12.3472 4.65214 10.8753 3.24575 9.02703 2.29834C9.66196 2.15634 10.3222 2.08142 11 2.08142ZM7.80625 3.92724C9.44625 4.69198 10.7475 5.88801 11.638 7.3173C9.34646 8.32796 6.64728 8.38237 4.19912 7.24078C3.8339 7.07047 3.48547 6.87877 3.15464 6.66787C3.91371 5.32148 5.00935 4.19009 6.3274 3.38787C6.82678 3.522 7.32144 3.70117 7.80625 3.92724Z" fill="#7C76BB"/>
</svg>
