<svg width="22" height="23" viewBox="0 0 22 23" fill="none" xmlns="http://www.w3.org/2000/svg">
<path fill-rule="evenodd" clip-rule="evenodd" d="M11 6.08142C8.23858 6.08142 6 8.32 6 11.0814C6 13.8428 8.23858 16.0814 11 16.0814C13.7614 16.0814 16 13.8428 16 11.0814C16 8.32 13.7614 6.08142 11 6.08142ZM8 11.0814C8 12.7383 9.34315 14.0814 11 14.0814C12.6569 14.0814 14 12.7383 14 11.0814C14 9.42457 12.6569 8.08142 11 8.08142C9.34315 8.08142 8 9.42457 8 11.0814Z" fill="#7C76BB"/>
<path d="M17 4.08142C16.4477 4.08142 16 4.52914 16 5.08142C16 5.63371 16.4477 6.08142 17 6.08142C17.5523 6.08142 18 5.63371 18 5.08142C18 4.52914 17.5523 4.08142 17 4.08142Z" fill="#7C76BB"/>
<path fill-rule="evenodd" clip-rule="evenodd" d="M4 0.0814209C1.79086 0.0814209 0 1.87228 0 4.08142V18.0814C0 20.2906 1.79086 22.0814 4 22.0814H18C20.2091 22.0814 22 20.2906 22 18.0814V4.08142C22 1.87228 20.2091 0.0814209 18 0.0814209H4ZM18 2.08142H4C2.89543 2.08142 2 2.97685 2 4.08142V18.0814C2 19.186 2.89543 20.0814 4 20.0814H18C19.1046 20.0814 20 19.186 20 18.0814V4.08142C20 2.97685 19.1046 2.08142 18 2.08142Z" fill="#7C76BB"/>
</svg>
