<svg width="221" height="27" viewBox="0 0 221 27" fill="none" xmlns="http://www.w3.org/2000/svg">
<path d="M4.76758 0.634766V16.6484C4.76758 18.4062 5.2832 19.8184 6.31445 20.8848C7.35742 21.9395 8.80469 22.4668 10.6562 22.4668C12.5078 22.4668 13.9551 21.9395 14.998 20.8848C16.041 19.8184 16.5625 18.4062 16.5625 16.6484V0.634766H21.0801V17.0527C21.0801 19.8535 20.1367 22.1152 18.25 23.8379C16.375 25.5605 13.8438 26.4219 10.6562 26.4219C7.48047 26.4219 4.94922 25.5605 3.0625 23.8379C1.17578 22.1152 0.232422 19.8535 0.232422 17.0527V0.634766H4.76758ZM25.5801 0.634766H35.4414C37.9727 0.634766 40.0293 1.41992 41.6113 2.99023C43.1934 4.54883 43.9844 6.59375 43.9844 9.125C43.9844 11.6445 43.1699 13.6895 41.541 15.2598C39.9238 16.8301 37.8262 17.6152 35.248 17.6152H30.1152V26H25.5801V0.634766ZM30.1152 4.34375V13.959H34.2285C35.8574 13.959 37.123 13.5371 38.0254 12.6934C38.9277 11.8496 39.3789 10.6602 39.3789 9.125C39.3789 7.60156 38.9277 6.42383 38.0254 5.5918C37.1348 4.75977 35.875 4.34375 34.2461 4.34375H30.1152ZM65.1484 26H54.5137V0.634766H65.043C67.3516 0.634766 69.1914 1.20898 70.5625 2.35742C71.9336 3.50586 72.6191 5.04102 72.6191 6.96289C72.6191 8.32227 72.1738 9.5293 71.2832 10.584C70.3926 11.6387 69.2969 12.2715 67.9961 12.4824V12.623C69.7305 12.7871 71.1367 13.4375 72.2148 14.5742C73.3047 15.7109 73.8496 17.1172 73.8496 18.793C73.8496 21.0312 73.0762 22.7949 71.5293 24.084C69.9824 25.3613 67.8555 26 65.1484 26ZM59.0488 4.16797V11.3223H63.1973C64.7793 11.3223 65.998 11.0059 66.8535 10.373C67.709 9.72852 68.1367 8.81445 68.1367 7.63086C68.1367 6.5293 67.7676 5.67969 67.0293 5.08203C66.3027 4.47266 65.2598 4.16797 63.9004 4.16797H59.0488ZM59.0488 22.4668H64.1113C65.7754 22.4668 67.041 22.127 67.9082 21.4473C68.7871 20.7676 69.2266 19.7773 69.2266 18.4766C69.2266 17.1875 68.7754 16.209 67.873 15.541C66.9824 14.873 65.6641 14.5391 63.918 14.5391H59.0488V22.4668ZM81.6191 0.634766V16.6484C81.6191 18.4062 82.1348 19.8184 83.166 20.8848C84.209 21.9395 85.6562 22.4668 87.5078 22.4668C89.3594 22.4668 90.8066 21.9395 91.8496 20.8848C92.8926 19.8184 93.4141 18.4062 93.4141 16.6484V0.634766H97.9316V17.0527C97.9316 19.8535 96.9883 22.1152 95.1016 23.8379C93.2266 25.5605 90.6953 26.4219 87.5078 26.4219C84.332 26.4219 81.8008 25.5605 79.9141 23.8379C78.0273 22.1152 77.084 19.8535 77.084 17.0527V0.634766H81.6191ZM101.395 18.8633H105.789C105.93 20.0234 106.527 20.9609 107.582 21.6758C108.637 22.3789 109.943 22.7305 111.502 22.7305C113.025 22.7305 114.268 22.3906 115.229 21.7109C116.201 21.0312 116.688 20.1641 116.688 19.1094C116.688 18.1953 116.336 17.457 115.633 16.8945C114.93 16.3203 113.781 15.8457 112.188 15.4707L108.9 14.6973C106.568 14.1582 104.834 13.3203 103.697 12.1836C102.572 11.0469 102.01 9.57031 102.01 7.75391C102.01 5.51563 102.889 3.69922 104.646 2.30469C106.404 0.910156 108.672 0.212891 111.449 0.212891C114.238 0.212891 116.482 0.904297 118.182 2.28711C119.893 3.6582 120.777 5.46289 120.836 7.70117H116.512C116.406 6.51758 115.896 5.5918 114.982 4.92383C114.068 4.24414 112.879 3.9043 111.414 3.9043C109.984 3.9043 108.824 4.22656 107.934 4.87109C107.055 5.51563 106.615 6.36523 106.615 7.41992C106.615 8.26367 106.955 8.94922 107.635 9.47656C108.326 10.0039 109.451 10.4551 111.01 10.8301L113.928 11.498C116.494 12.084 118.357 12.9395 119.518 14.0645C120.678 15.1895 121.258 16.6953 121.258 18.582C121.258 20.9844 120.355 22.8945 118.551 24.3125C116.758 25.7188 114.326 26.4219 111.256 26.4219C108.326 26.4219 105.971 25.748 104.189 24.4004C102.42 23.041 101.488 21.1953 101.395 18.8633ZM129.221 26H124.686V0.634766H129.221V26ZM138.062 26H133.686V0.634766H137.623L150.209 18.4062H150.367V0.634766H154.727V26H150.824L138.221 8.21094H138.062V26ZM175.627 22.168V26H159.209V0.634766H175.627V4.4668H163.744V11.3223H174.977V14.9258H163.744V22.168H175.627ZM178.527 18.8633H182.922C183.062 20.0234 183.66 20.9609 184.715 21.6758C185.77 22.3789 187.076 22.7305 188.635 22.7305C190.158 22.7305 191.4 22.3906 192.361 21.7109C193.334 21.0312 193.82 20.1641 193.82 19.1094C193.82 18.1953 193.469 17.457 192.766 16.8945C192.062 16.3203 190.914 15.8457 189.32 15.4707L186.033 14.6973C183.701 14.1582 181.967 13.3203 180.83 12.1836C179.705 11.0469 179.143 9.57031 179.143 7.75391C179.143 5.51563 180.021 3.69922 181.779 2.30469C183.537 0.910156 185.805 0.212891 188.582 0.212891C191.371 0.212891 193.615 0.904297 195.314 2.28711C197.025 3.6582 197.91 5.46289 197.969 7.70117H193.645C193.539 6.51758 193.029 5.5918 192.115 4.92383C191.201 4.24414 190.012 3.9043 188.547 3.9043C187.117 3.9043 185.957 4.22656 185.066 4.87109C184.188 5.51563 183.748 6.36523 183.748 7.41992C183.748 8.26367 184.088 8.94922 184.768 9.47656C185.459 10.0039 186.584 10.4551 188.143 10.8301L191.061 11.498C193.627 12.084 195.49 12.9395 196.65 14.0645C197.811 15.1895 198.391 16.6953 198.391 18.582C198.391 20.9844 197.488 22.8945 195.684 24.3125C193.891 25.7188 191.459 26.4219 188.389 26.4219C185.459 26.4219 183.104 25.748 181.322 24.4004C179.553 23.041 178.621 21.1953 178.527 18.8633ZM200.781 18.8633H205.176C205.316 20.0234 205.914 20.9609 206.969 21.6758C208.023 22.3789 209.33 22.7305 210.889 22.7305C212.412 22.7305 213.654 22.3906 214.615 21.7109C215.588 21.0312 216.074 20.1641 216.074 19.1094C216.074 18.1953 215.723 17.457 215.02 16.8945C214.316 16.3203 213.168 15.8457 211.574 15.4707L208.287 14.6973C205.955 14.1582 204.221 13.3203 203.084 12.1836C201.959 11.0469 201.396 9.57031 201.396 7.75391C201.396 5.51563 202.275 3.69922 204.033 2.30469C205.791 0.910156 208.059 0.212891 210.836 0.212891C213.625 0.212891 215.869 0.904297 217.568 2.28711C219.279 3.6582 220.164 5.46289 220.223 7.70117H215.898C215.793 6.51758 215.283 5.5918 214.369 4.92383C213.455 4.24414 212.266 3.9043 210.801 3.9043C209.371 3.9043 208.211 4.22656 207.32 4.87109C206.441 5.51563 206.002 6.36523 206.002 7.41992C206.002 8.26367 206.342 8.94922 207.021 9.47656C207.713 10.0039 208.838 10.4551 210.396 10.8301L213.314 11.498C215.881 12.084 217.744 12.9395 218.904 14.0645C220.064 15.1895 220.645 16.6953 220.645 18.582C220.645 20.9844 219.742 22.8945 217.938 24.3125C216.145 25.7188 213.713 26.4219 210.643 26.4219C207.713 26.4219 205.357 25.748 203.576 24.4004C201.807 23.041 200.875 21.1953 200.781 18.8633Z" fill="#7C76BB"/>
</svg>
