<svg width="20" height="23" viewBox="0 0 20 23" fill="none" xmlns="http://www.w3.org/2000/svg">
<path d="M16.1284 16.6724L11.5318 21.269C11.3308 21.4703 11.0921 21.6299 10.8294 21.7388C10.5666 21.8477 10.285 21.9038 10.0005 21.9038C9.71612 21.9038 9.43448 21.8477 9.17173 21.7388C8.90898 21.6299 8.67028 21.4703 8.46926 21.269L3.87159 16.6724C2.65958 15.4604 1.8342 13.9161 1.49983 12.235C1.16547 10.5538 1.33712 8.81126 1.99309 7.22766C2.64907 5.64406 3.75989 4.29054 5.18511 3.33825C6.61033 2.38597 8.28592 1.87769 10 1.87769C11.7141 1.87769 13.3897 2.38597 14.8149 3.33825C16.2401 4.29054 17.3509 5.64406 18.0069 7.22766C18.6629 8.81126 18.8345 10.5538 18.5002 12.235C18.1658 13.9161 17.3404 15.4604 16.1284 16.6724V16.6724Z" stroke="#7C76BB" stroke-width="2" stroke-linecap="round" stroke-linejoin="round"/>
</svg>
