<svg width="24" height="21" viewBox="0 0 24 21" fill="none" xmlns="http://www.w3.org/2000/svg">
<path d="M23 1.08141C22.0424 1.75688 20.9821 2.27352 19.86 2.61141C19.2577 1.91892 18.4573 1.4281 17.567 1.20533C16.6767 0.982566 15.7395 1.0386 14.8821 1.36586C14.0247 1.69312 13.2884 2.27581 12.773 3.03512C12.2575 3.79444 11.9877 4.69374 12 5.61141V6.61141C10.2426 6.65697 8.50127 6.26722 6.93101 5.47685C5.36074 4.68649 4.01032 3.52004 3 2.08141C3 2.08141 -1 11.0814 8 15.0814C5.94053 16.4794 3.48716 17.1803 1 17.0814C10 22.0814 21 17.0814 21 5.58141C20.9991 5.30286 20.9723 5.025 20.92 4.75141C21.9406 3.7449 22.6608 2.47412 23 1.08141V1.08141Z" stroke="#7C76BB" stroke-width="2" stroke-linecap="round" stroke-linejoin="round"/>
</svg>
